<svg width="15" height="18" viewBox="0 0 15 18" fill="none" xmlns="http://www.w3.org/2000/svg">
<path fill-rule="evenodd" clip-rule="evenodd" d="M2.98974 4.57612V4.46347C2.98974 2.42649 4.36882 0.647923 6.34162 0.140631C7.07082 -0.046877 7.8356 -0.046877 8.5648 0.140631C10.5376 0.647923 11.9167 2.42649 11.9167 4.46348V4.57612H13.3273C13.8641 4.57612 14.3197 4.96983 14.3975 5.50098L14.603 6.9034C15.0076 9.66461 15.0076 12.47 14.603 15.2312C14.4076 16.5647 13.3323 17.5956 11.9919 17.7346L11.4009 17.7959C8.77615 18.0681 6.13027 18.0681 3.5055 17.7959L2.91456 17.7346C1.57407 17.5956 0.498805 16.5647 0.303429 15.2312C-0.101143 12.47 -0.101143 9.66461 0.30343 6.9034L0.508913 5.50098C0.586737 4.96983 1.04234 4.57612 1.57916 4.57612H2.98974ZM6.69265 1.50574C7.19158 1.37744 7.71485 1.37744 8.21377 1.50574C9.56359 1.85283 10.5072 3.06975 10.5072 4.46348V4.57612H4.39925V4.46347C4.39925 3.06975 5.34284 1.85283 6.69265 1.50574ZM2.98974 5.98564V8.09991C2.98974 8.48914 3.30527 8.80467 3.69449 8.80467C4.08372 8.80467 4.39925 8.48914 4.39925 8.09991V5.98564H10.5072V8.09991C10.5072 8.48914 10.8227 8.80467 11.2119 8.80467C11.6012 8.80467 11.9167 8.48914 11.9167 8.09991V5.98564H13.0439L13.2084 7.10774C13.5931 9.73345 13.5931 12.4012 13.2084 15.0269C13.1065 15.7224 12.5456 16.2601 11.8465 16.3326L11.2555 16.3939C8.72742 16.656 6.17899 16.656 3.65089 16.3939L3.05995 16.3326C2.36079 16.2601 1.79996 15.7224 1.69806 15.0269C1.31334 12.4012 1.31334 9.73345 1.69806 7.10774L1.86247 5.98564H2.98974Z" fill="#1D1D1D"/>
</svg>
