<svg width="52" height="53" viewBox="0 0 52 53" fill="none" xmlns="http://www.w3.org/2000/svg">
<path d="M40.2435 0H12.7882C5.72494 0 0 5.56101 0 12.4195V53H40.2435C46.735 53 52 47.8883 52 41.5801V41.5776C52 35.2719 46.7376 30.1577 40.2435 30.1577H12.0995C10.2285 30.1577 8.61729 28.7592 8.52894 26.9418C8.43538 25.0031 10.0232 23.4027 11.9982 23.4027H40.2383C46.7324 23.4027 51.9948 18.2885 51.9948 11.9828V11.4148C51.9974 5.11169 46.735 0 40.2435 0ZM43.4269 11.9879C43.4269 13.6943 42.0028 15.0776 40.2461 15.0776H15.0595C12.4036 15.0776 10.0024 16.1226 8.26127 17.8114C6.52274 19.5001 5.44947 21.8351 5.44947 24.4124C5.44947 24.5538 5.45207 24.6977 5.45987 24.834C5.46247 24.8819 5.46507 24.9324 5.47026 24.9804C5.57681 26.7045 6.16152 28.3023 7.09705 29.6503C7.11264 29.6756 7.13083 29.6983 7.14643 29.721C8.24308 31.2028 9.82829 32.3614 11.7513 33.2045C11.7617 33.207 11.7695 33.2121 11.7773 33.2146C12.8116 33.5832 13.929 33.7826 15.0959 33.7826H18.9705C22.2994 33.7826 25.5816 34.5197 28.5753 35.9383L29.4095 36.3346C32.398 37.7533 35.6854 38.4904 39.0143 38.4904H40.2487C41.127 38.4904 41.9222 38.8362 42.4991 39.3941C43.0761 39.9545 43.4295 40.7294 43.4295 41.5852C43.4295 43.3067 41.9274 44.6724 40.1551 44.6724H3.05867V11.6824C3.05867 6.88122 7.06587 2.98876 12.0086 2.98876C13.9212 2.98876 15.8209 3.21847 17.6634 3.66779C19.5084 4.11459 21.2912 4.78353 22.9803 5.65946C24.6695 6.53539 26.4548 7.20432 28.2972 7.65112C30.0228 8.07268 31.8029 8.29987 33.596 8.32763H40.2461C42.0028 8.32763 43.4269 9.71094 43.4269 11.4174V11.9879V11.9879Z" fill="white"/>
</svg>
