<svg width="30" height="32" viewBox="0 0 30 32" fill="none" xmlns="http://www.w3.org/2000/svg">
<path fill-rule="evenodd" clip-rule="evenodd" d="M4.98137 5.39649C4.98137 2.41609 7.39746 0 10.3779 0C12.047 0 13.5391 0.757779 14.529 1.94807C15.5189 0.757779 17.011 0 18.6802 0C21.6606 0 24.0766 2.41609 24.0766 5.39649C24.0766 6.46636 23.7653 7.46351 23.2283 8.30229H24.4918C27.0136 8.30229 29.058 10.3467 29.058 12.8686V16.1895C29.058 17.5247 28.1574 18.6496 26.9305 18.9899C27.1697 22.0229 27.0311 25.0757 26.5167 28.0779C26.2095 29.8706 24.7535 31.244 22.9459 31.446L21.4274 31.6157C16.8428 32.1281 12.2153 32.1281 7.6306 31.6157L6.11216 31.446C4.30456 31.244 2.84856 29.8706 2.54136 28.0779C2.0269 25.0757 1.88834 22.0229 2.12756 18.9899C0.90063 18.6496 0 17.5247 0 16.1895V12.8686C0 10.3467 2.04438 8.30229 4.56626 8.30229H5.82972C5.29271 7.46351 4.98137 6.46636 4.98137 5.39649ZM13.2837 5.39649C13.2837 3.79166 11.9827 2.49069 10.3779 2.49069C8.77303 2.49069 7.47206 3.79166 7.47206 5.39649C7.47206 7.00132 8.77303 8.30229 10.3779 8.30229C11.9827 8.30229 13.2837 7.00132 13.2837 5.39649ZM18.6802 8.30229C20.285 8.30229 21.586 7.00132 21.586 5.39649C21.586 3.79166 20.285 2.49069 18.6802 2.49069C17.0753 2.49069 15.7744 3.79166 15.7744 5.39649C15.7744 7.00132 17.0753 8.30229 18.6802 8.30229ZM2.49069 12.8686C2.49069 11.7222 3.41995 10.793 4.56626 10.793H13.2837V16.6046H2.9058C2.67654 16.6046 2.49069 16.4187 2.49069 16.1895V12.8686ZM15.7744 19.0953H24.4402C24.6732 21.9523 24.5464 24.8288 24.0618 27.6572C23.942 28.3563 23.3741 28.8919 22.6692 28.9707L21.1508 29.1404C19.3636 29.3402 17.5696 29.4588 15.7744 29.4963V19.0953ZM15.7744 16.6046H26.1522C26.3815 16.6046 26.5673 16.4187 26.5673 16.1895V12.8686C26.5673 11.7222 25.6381 10.793 24.4918 10.793H15.7744V16.6046ZM13.2837 19.0953V29.4963C11.4884 29.4588 9.69445 29.3402 7.90725 29.1404L6.38881 28.9707C5.68388 28.8919 5.11606 28.3563 4.99626 27.6572C4.51159 24.8288 4.38483 21.9523 4.61779 19.0953H13.2837Z" fill="white"/>
</svg>
