<svg width="32" height="26" viewBox="0 0 32 26" fill="none" xmlns="http://www.w3.org/2000/svg">
<path fill-rule="evenodd" clip-rule="evenodd" d="M0 8.57067C0 3.7284 4.24812 0 9.23448 0C11.8048 0 14.0666 1.20521 15.6897 2.76467C17.3127 1.20521 19.5745 0 22.1448 0C27.1312 0 31.3793 3.7284 31.3793 8.57067C31.3793 11.8877 29.9648 14.8047 28.005 17.2703C26.0486 19.7318 23.4896 21.8208 21.0393 23.5183C20.1035 24.1667 19.1567 24.7647 18.2901 25.206C17.4765 25.6204 16.5409 26 15.6897 26C14.8384 26 13.9028 25.6204 13.0892 25.206C12.2227 24.7647 11.2759 24.1667 10.34 23.5183C7.88975 21.8208 5.33067 19.7318 3.3743 17.2703C1.41454 14.8047 0 11.8877 0 8.57067ZM9.23448 2.68966C5.50618 2.68966 2.68966 5.43149 2.68966 8.57067C2.68966 11.0873 3.75796 13.4303 5.47989 15.5968C7.2052 17.7675 9.52662 19.6828 11.8717 21.3074C12.759 21.9221 13.5948 22.4452 14.3098 22.8093C15.0776 23.2003 15.5223 23.3103 15.6897 23.3103C15.857 23.3103 16.3017 23.2003 17.0695 22.8093C17.7845 22.4452 18.6203 21.9221 19.5076 21.3074C21.8527 19.6828 24.1741 17.7675 25.8994 15.5968C27.6213 13.4303 28.6897 11.0873 28.6897 8.57067C28.6897 5.43149 25.8731 2.68966 22.1448 2.68966C20.0036 2.68966 18.0042 3.9689 16.7558 5.59255C16.5012 5.92362 16.1073 6.11765 15.6897 6.11765C15.272 6.11765 14.8781 5.92362 14.6235 5.59255C13.3751 3.9689 11.3757 2.68966 9.23448 2.68966Z" fill="black"/>
</svg>
