<svg width="182" height="26" viewBox="0 0 182 26" fill="none" xmlns="http://www.w3.org/2000/svg">
<path d="M72.6522 12.1734C72.2555 12.7567 71.0267 13.6525 67.3778 12.2702C62.7293 10.5092 59.6754 9.94056 57.5321 12.2604V0.222656H52.97V3.1368C52.97 4.03997 53.1026 4.93946 53.3615 5.82179C53.6217 6.70412 54.0107 7.57052 54.5233 8.40873C55.4623 9.94424 56.266 10.9516 56.3948 13.0704C56.2673 15.2002 55.4623 16.2137 54.5233 17.7566C54.0107 18.5984 53.623 19.4685 53.3615 20.3558C53.1026 21.2418 52.97 22.1462 52.97 23.0542V25.9831H57.5321V13.7309C58.1336 13.2199 59.4925 12.7959 62.5245 13.9441C67.4113 15.7946 69.8843 16.3289 72.6522 13.514V25.9831H77.2144V23.0542C77.2144 22.1462 77.0817 21.2418 76.8228 20.3558C76.5626 19.4685 76.1737 18.5972 75.661 17.7566C74.7221 16.2137 73.9183 15.2002 73.7895 13.0704C73.9171 10.9516 74.7221 9.94301 75.661 8.40873C76.1737 7.57174 76.5614 6.70534 76.8228 5.82179C77.0817 4.93946 77.2144 4.03997 77.2144 3.1368V0.222656H72.6522V12.1734Z" fill="black"/>
<path d="M181.933 0.235352H177.684V25.9958H181.933V0.235352Z" fill="black"/>
<path d="M161.912 0.235352L173.435 25.9958H177.684L166.161 0.235352H161.912Z" fill="black"/>
<path d="M137.304 0.235352L148.826 25.9958H153.075L141.553 0.235352H137.304Z" fill="black"/>
<path d="M157.637 0.239258H153.075V25.996V25.9997H154.194V19.6408C154.194 15.9652 155.058 14.4561 156.084 12.0404C156.596 10.8332 156.984 9.58426 157.245 8.31078C157.504 7.03853 157.637 5.74173 157.637 4.44003V0.239258Z" fill="black"/>
<path d="M127.125 17.8745C126.401 16.6025 125.559 15.355 124.607 14.1491C122.703 11.7362 121.29 10.2289 119.954 6.55737L117.64 0.207031H116.521L117.779 3.66406C119.254 7.97645 120.925 14.4506 117.193 15.0461C114.36 15.0461 111.728 16.9358 109.582 20.5092C109.503 20.6416 109.425 20.7739 109.348 20.9063L116.517 0.207031H112.254L103.33 25.9674H107.594H107.599C107.978 24.7714 111.268 17.3377 116.855 17.3377C118.98 17.3377 121.095 17.3096 121.982 15.2226L125.891 25.9674H130.453L128.925 21.7408C128.451 20.4406 127.847 19.1453 127.125 17.8745Z" fill="black"/>
<path d="M160.793 6.59685C160.793 10.2725 159.928 11.7816 158.903 14.1973C158.391 15.4045 158.003 16.6534 157.741 17.9269C157.483 19.1992 157.35 20.496 157.35 21.7977V25.9997H161.912V0.239258H160.793V6.59685Z" fill="black"/>
<path d="M137.304 0.238281H133.055V25.9987H137.304V0.238281Z" fill="black"/>
<path d="M30.2941 3.77249C25.2643 8.80247 25.2643 16.9579 30.2941 21.9879C35.324 27.0179 43.4793 27.0179 48.5091 21.9879C53.539 16.9579 53.5402 8.80247 48.5104 3.77249C43.4805 -1.2575 35.3252 -1.2575 30.2941 3.77249ZM45.2135 21.1646C41.3219 25.0563 35.0102 25.0575 31.1174 21.1646C27.2259 17.2729 27.2259 10.9599 31.1174 7.06824C35.0102 3.17536 41.3219 3.17657 45.2135 7.06824C49.1062 10.9611 49.1062 17.2717 45.2135 21.1646Z" fill="black"/>
<path d="M100.301 3.77277C95.2712 -1.2571 87.1156 -1.25588 82.0855 3.77398C77.0555 8.80385 77.0555 16.9591 82.0855 21.989C87.1156 27.0189 95.2712 27.0189 100.301 21.989C105.33 16.9579 105.331 8.80263 100.301 3.77277ZM97.0043 21.1645C93.1125 25.056 86.8006 25.0573 82.9077 21.1645C79.0159 17.2729 79.0159 10.96 82.9077 7.06844C86.8006 3.17565 93.1125 3.17687 97.0043 7.06844C100.897 10.9612 100.897 17.2717 97.0043 21.1645Z" fill="black"/>
<path d="M19.9363 0.239258H6.33518C2.83609 0.239258 0 2.94216 0 6.2757V25.9997H19.9363C23.1522 25.9997 25.7604 23.5152 25.7604 20.4491V20.4479C25.7604 17.383 23.1535 14.8973 19.9363 14.8973H5.99403C5.06712 14.8973 4.26894 14.2176 4.22517 13.3342C4.17883 12.3919 4.96541 11.614 5.94382 11.614H19.9337C23.1509 11.614 25.7578 9.12829 25.7578 6.06345V5.78739C25.7591 2.72377 23.1522 0.239258 19.9363 0.239258ZM21.5134 6.0659C21.5134 6.8953 20.8079 7.56765 19.9376 7.56765H7.46035C6.14465 7.56765 4.95511 8.0756 4.09257 8.89641C3.23132 9.71721 2.69963 10.8521 2.69963 12.1048C2.69963 12.1735 2.70092 12.2434 2.70478 12.3097C2.70607 12.333 2.70735 12.3575 2.70993 12.3809C2.76271 13.2188 3.05237 13.9955 3.51583 14.6507C3.52355 14.6629 3.53256 14.674 3.54029 14.685C4.08356 15.4052 4.86886 15.9684 5.82152 16.3782C5.82667 16.3794 5.83053 16.3818 5.83439 16.3831C6.34677 16.5622 6.90034 16.6591 7.47837 16.6591H9.39785C11.047 16.6591 12.6729 17.0174 14.156 17.7069L14.5692 17.8995C16.0497 18.5891 17.6783 18.9473 19.3274 18.9473H19.9389C20.374 18.9473 20.768 19.1154 21.0538 19.3866C21.3396 19.6589 21.5146 20.0356 21.5146 20.4515C21.5146 21.2883 20.7705 21.9521 19.8925 21.9521H1.51524V5.91744C1.51524 3.58384 3.50038 1.69193 5.94897 1.69193C6.89648 1.69193 7.83755 1.80358 8.7503 2.02197C9.66434 2.23914 10.5475 2.56427 11.3843 2.99001C12.2211 3.41575 13.1055 3.74089 14.0182 3.95805C14.8731 4.16295 15.7549 4.27337 16.6432 4.28687H19.9376C20.8079 4.28687 21.5134 4.95922 21.5134 5.78862V6.0659Z" fill="black"/>
</svg>
