<svg width="26" height="26" viewBox="0 0 26 26" fill="none" xmlns="http://www.w3.org/2000/svg">
<path d="M19.9363 0H6.33518C2.83609 0 0 2.7029 0 6.03645V25.7604H19.9363C23.1522 25.7604 25.7604 23.2759 25.7604 20.2098V20.2086C25.7604 17.1438 23.1535 14.658 19.9363 14.658H5.99403C5.06712 14.658 4.26894 13.9783 4.22517 13.0949C4.17883 12.1526 4.96541 11.3748 5.94382 11.3748H19.9337C23.1509 11.3748 25.7578 8.88904 25.7578 5.82419V5.54813C25.7591 2.48451 23.1522 0 19.9363 0ZM21.5134 5.82664C21.5134 6.65604 20.8079 7.32839 19.9376 7.32839H7.46035C6.14465 7.32839 4.95511 7.83634 4.09257 8.65715C3.23132 9.47796 2.69963 10.6129 2.69963 11.8655C2.69963 11.9343 2.70092 12.0042 2.70478 12.0704C2.70607 12.0938 2.70735 12.1183 2.70993 12.1416C2.76271 12.9796 3.05237 13.7562 3.51583 14.4114C3.52355 14.4237 3.53256 14.4347 3.54029 14.4458C4.08356 15.166 4.86886 15.7291 5.82152 16.1389C5.82667 16.1401 5.83053 16.1426 5.83439 16.1438C6.34677 16.3229 6.90034 16.4199 7.47837 16.4199H9.39785C11.047 16.4199 12.6729 16.7781 14.156 17.4677L14.5692 17.6603C16.0497 18.3498 17.6783 18.7081 19.3274 18.7081H19.9389C20.374 18.7081 20.768 18.8762 21.0538 19.1473C21.3396 19.4197 21.5146 19.7964 21.5146 20.2123C21.5146 21.049 20.7705 21.7128 19.8925 21.7128H1.51524V5.67819C1.51524 3.34458 3.50038 1.45267 5.94897 1.45267C6.89648 1.45267 7.83755 1.56432 8.7503 1.78271C9.66434 1.99988 10.5475 2.32501 11.3843 2.75075C12.2211 3.1765 13.1055 3.50163 14.0182 3.71879C14.8731 3.92369 15.7549 4.03411 16.6432 4.04761H19.9376C20.8079 4.04761 21.5134 4.71996 21.5134 5.54936V5.82664Z" fill="black"/>
</svg>
