<svg width="33" height="32" viewBox="0 0 33 32" fill="none" xmlns="http://www.w3.org/2000/svg">
<path fill-rule="evenodd" clip-rule="evenodd" d="M4.12409 12.4335C7.39139 19.5481 13.2055 25.2044 20.4332 28.2693L20.456 28.2789L21.8523 28.9013C23.6303 29.6935 25.7202 29.1308 26.8602 27.5531L29.1898 24.3289C29.3321 24.1319 29.2954 23.8581 29.1063 23.7055L25.0394 20.4245C24.8372 20.2614 24.5399 20.2994 24.3852 20.5081L22.8024 22.644C22.418 23.1627 21.7238 23.3429 21.1356 23.0768C15.7311 20.6309 11.3882 16.288 8.94238 10.8836C8.67619 10.2954 8.85643 9.60116 9.37514 9.21675L11.511 7.63391C11.7197 7.47925 11.7577 7.18196 11.5946 6.97978L8.31316 2.91228C8.16064 2.72324 7.8869 2.68652 7.68996 2.82869L4.44829 5.16889C2.8601 6.31542 2.30079 8.42288 3.11146 10.2061L4.123 12.4311C4.12336 12.4319 4.12372 12.4327 4.12409 12.4335ZM19.3511 30.7888C11.4978 27.4552 5.18119 21.3075 1.63103 13.5753L1.62889 13.5706L0.615234 11.3409C-0.73588 8.36894 0.196295 4.8565 2.84328 2.94561L6.08495 0.605414C7.46353 -0.38979 9.37974 -0.132757 10.4473 1.19056L13.7288 5.25806C14.8705 6.67328 14.6045 8.75433 13.1436 9.83697L11.9198 10.744C13.9871 14.7554 17.2637 18.032 21.2752 20.0994L22.1822 18.8755C23.2648 17.4146 25.3459 17.1486 26.7611 18.2904L30.828 21.5713C32.1517 22.6392 32.4085 24.5562 31.4124 25.9348L29.0828 29.159C27.1828 31.7886 23.6997 32.7263 20.7363 31.406L19.3511 30.7888Z" fill="#F2F2F2"/>
</svg>
