<svg width="29" height="37" viewBox="0 0 29 37" fill="none" xmlns="http://www.w3.org/2000/svg">
<path d="M24.6038 4.60328C22.1516 2.24919 18.758 0.952637 15.0482 0.952637C9.3814 0.952637 5.89601 3.27556 3.97004 5.22414C1.5964 7.62554 0.235352 10.8142 0.235352 13.9725C0.235352 17.9381 1.89406 20.9818 4.67175 22.1141C4.85823 22.1905 5.04588 22.229 5.22985 22.229C5.81585 22.229 6.28016 21.8455 6.44103 21.2305C6.53482 20.8777 6.75205 20.0072 6.84654 19.6293C7.04874 18.8831 6.88536 18.5241 6.44437 18.0044C5.641 17.0538 5.26687 15.9297 5.26687 14.4668C5.26687 10.1215 8.50247 5.50336 14.4993 5.50336C19.2576 5.50336 22.2134 8.20778 22.2134 12.5611C22.2134 15.3083 21.6216 17.8524 20.5468 19.7251C19.8 21.0264 18.4867 22.5775 16.4705 22.5775C15.5987 22.5775 14.8155 22.2194 14.3213 21.595C13.8545 21.0047 13.7006 20.2423 13.8884 19.4476C14.1005 18.5498 14.3897 17.6132 14.6697 16.7079C15.1802 15.0542 15.6628 13.4924 15.6628 12.2463C15.6628 10.1149 14.3524 8.68273 12.4025 8.68273C9.92433 8.68273 7.98284 11.1997 7.98284 14.4129C7.98284 15.9887 8.40164 17.1674 8.59125 17.62C8.27904 18.9427 6.42363 26.8066 6.0717 28.2895C5.86818 29.1551 4.64232 35.9923 6.67134 36.5374C8.95104 37.15 10.9888 30.491 11.1962 29.7386C11.3643 29.1266 11.9525 26.8126 12.3129 25.3902C13.4135 26.4503 15.1855 27.1669 16.9096 27.1669C20.1601 27.1669 23.0832 25.7042 25.1408 23.0486C27.1363 20.4727 28.2353 16.8826 28.2353 12.9399C28.2351 9.85766 26.9114 6.81897 24.6038 4.60328Z" fill="#1D1D1D"/>
</svg>
