<svg width="29" height="28" viewBox="0 0 29 28" fill="none" xmlns="http://www.w3.org/2000/svg">
<path fill-rule="evenodd" clip-rule="evenodd" d="M17.9778 19.3498C13.6319 22.7657 7.27048 22.4968 3.24189 18.5433C-1.08063 14.3012 -1.08063 7.42355 3.24189 3.18152C7.56442 -1.06051 14.5726 -1.06051 18.8951 3.18152C22.9237 7.13509 23.1977 13.378 19.717 17.643L28.1711 25.9396C28.6514 26.411 28.6514 27.1752 28.1711 27.6465C27.6908 28.1178 26.9121 28.1178 26.4319 27.6465L17.9778 19.3498ZM4.98114 16.8364C1.61918 13.5371 1.61918 8.18774 4.98114 4.88838C8.34311 1.58903 13.7939 1.58903 17.1559 4.88838C20.5154 8.18532 20.5179 13.5292 17.1633 16.8291C17.1608 16.8315 17.1583 16.834 17.1559 16.8364C17.1534 16.8388 17.1509 16.8412 17.1485 16.8437C13.7859 20.1358 8.34064 20.1334 4.98114 16.8364Z" fill="#1D1D1D"/>
</svg>
