<svg width="40" height="32" viewBox="0 0 40 32" fill="none" xmlns="http://www.w3.org/2000/svg">
<path d="M11.2664 11.3586C9.72584 11.3586 8.477 12.6075 8.477 14.148C8.477 15.6885 9.72584 16.9374 11.2664 16.9374C12.8069 16.9374 14.0557 15.6885 14.0557 14.148C14.0557 12.6075 12.8069 11.3586 11.2664 11.3586Z" fill="#F2F2F2"/>
<path d="M20.1924 11.3586C18.6518 11.3586 17.403 12.6075 17.403 14.148C17.403 15.6885 18.6518 16.9374 20.1924 16.9374C21.7329 16.9374 22.9818 15.6885 22.9818 14.148C22.9818 12.6075 21.7329 11.3586 20.1924 11.3586Z" fill="#F2F2F2"/>
<path d="M26.329 14.148C26.329 12.6075 27.5778 11.3586 29.1184 11.3586C30.6589 11.3586 31.9077 12.6075 31.9077 14.148C31.9077 15.6885 30.6589 16.9374 29.1184 16.9374C27.5778 16.9374 26.329 15.6885 26.329 14.148Z" fill="#F2F2F2"/>
<path fill-rule="evenodd" clip-rule="evenodd" d="M29.3431 0.408179C23.3311 -0.104529 17.2875 -0.134284 11.2707 0.319203L10.8395 0.351702C5.10164 0.784162 0.666748 5.56589 0.666748 11.32V30.3264C0.666748 30.9152 0.976181 31.4607 1.48158 31.7629C1.98697 32.065 2.61397 32.0793 3.13264 31.8006L11.8596 27.1106C12.2655 26.8925 12.7192 26.7783 13.18 26.7783H33.2109C35.7371 26.7783 37.9021 24.9721 38.3549 22.4868C39.2727 17.4498 39.3452 12.2951 38.5695 7.23424L38.3409 5.74288C37.9247 3.0277 35.7035 0.950585 32.9665 0.717179L29.3431 0.408179ZM11.5223 3.65699C17.3607 3.21695 23.2249 3.24582 29.0587 3.74332L32.6821 4.05232C33.8789 4.15439 34.8503 5.0627 35.0323 6.25003L35.2609 7.7414C35.9803 12.4349 35.9131 17.2154 35.0619 21.8868C34.899 22.7811 34.1199 23.431 33.2109 23.431H13.18C12.1662 23.431 11.1681 23.6822 10.275 24.1622L4.014 27.5269V11.32C4.014 7.31694 7.09931 3.99034 11.0911 3.68948L11.5223 3.65699Z" fill="#F2F2F2"/>
</svg>
