<svg width="31" height="26" viewBox="0 0 31 26" fill="none" xmlns="http://www.w3.org/2000/svg">
<path d="M2.55083 11.534C2.55083 11.534 15.9332 6.04181 20.5744 4.10795C22.3536 3.3344 28.3872 0.859059 28.3872 0.859059C28.3872 0.859059 31.172 -0.223905 30.9399 2.40615C30.8626 3.48911 30.2438 7.27948 29.6249 11.3793C28.6967 17.1809 27.6911 23.5239 27.6911 23.5239C27.6911 23.5239 27.5363 25.3031 26.2213 25.6125C24.9063 25.9219 22.7404 24.5295 22.3536 24.2201C22.0442 23.9881 16.552 20.5071 14.5408 18.8053C13.9993 18.3412 13.3805 17.4129 14.6181 16.33C17.4029 13.7773 20.7292 10.6057 22.7404 8.59451C23.6686 7.66626 24.5969 5.50033 20.7292 8.13038C15.237 11.9208 9.82216 15.4791 9.82216 15.4791C9.82216 15.4791 8.58449 16.2526 6.26385 15.5564C3.94322 14.8602 1.23581 13.932 1.23581 13.932C1.23581 13.932 -0.620701 12.7717 2.55083 11.534Z" fill="#1D1D1D"/>
</svg>
